<?xml version="1.0" encoding="UTF-8" standalone="no"?>
<!-- Created with Inkscape (http://www.inkscape.org/) -->

<svg
   xmlns:dc="http://purl.org/dc/elements/1.1/"
   xmlns:cc="http://creativecommons.org/ns#"
   xmlns:rdf="http://www.w3.org/1999/02/22-rdf-syntax-ns#"
   xmlns:svg="http://www.w3.org/2000/svg"
   xmlns="http://www.w3.org/2000/svg"
   xmlns:sodipodi="http://sodipodi.sourceforge.net/DTD/sodipodi-0.dtd"
   xmlns:inkscape="http://www.inkscape.org/namespaces/inkscape"
   width="305.28683"
   height="337.64343"
   id="svg2"
   version="1.1"
   inkscape:version="0.48.4 r9939"
   sodipodi:docname="gday.svg">
  <defs
     id="defs4" />
  <sodipodi:namedview
     id="base"
     pagecolor="#ffffff"
     bordercolor="#666666"
     borderopacity="1.0"
     inkscape:pageopacity="0.0"
     inkscape:pageshadow="2"
     inkscape:zoom="0.35"
     inkscape:cx="-133.51709"
     inkscape:cy="127.70175"
     inkscape:document-units="px"
     inkscape:current-layer="layer1"
     showgrid="false"
     fit-margin-top="0"
     fit-margin-left="0"
     fit-margin-right="0"
     fit-margin-bottom="0"
     inkscape:window-width="1366"
     inkscape:window-height="705"
     inkscape:window-x="-8"
     inkscape:window-y="-8"
     inkscape:window-maximized="1" />
  <metadata
     id="metadata7">
    <rdf:RDF>
      <cc:Work
         rdf:about="">
        <dc:format>image/svg+xml</dc:format>
        <dc:type
           rdf:resource="http://purl.org/dc/dcmitype/StillImage" />
        <dc:title></dc:title>
      </cc:Work>
    </rdf:RDF>
  </metadata>
  <g
     inkscape:label="Layer 1"
     inkscape:groupmode="layer"
     id="layer1"
     transform="translate(-156.64229,-163.79076)">
    <path
       sodipodi:type="arc"
       style="fill:none"
       id="path3761"
       sodipodi:cx="271.42856"
       sodipodi:cy="294.50504"
       sodipodi:rx="95.714287"
       sodipodi:ry="119.28571"
       d="m 367.14285,294.50504 c 0,65.87968 -42.85275,119.28571 -95.71429,119.28571 -52.86154,0 -95.71429,-53.40603 -95.71429,-119.28571 0,-65.87968 42.85275,-119.28572 95.71429,-119.28572 52.78058,0 95.59972,53.24867 95.71406,119.02729 l -95.71406,0.25843 z"
       sodipodi:start="0"
       sodipodi:end="6.2810189" />
    <path
       sodipodi:type="arc"
       style="fill:none"
       id="path3763"
       sodipodi:cx="435"
       sodipodi:cy="166.6479"
       sodipodi:rx="2.1428571"
       sodipodi:ry="2.8571429"
       d="m 437.14286,166.6479 c 0,1.57796 -0.95939,2.85715 -2.14286,2.85715 -1.18347,0 -2.14286,-1.27919 -2.14286,-2.85715 0,-1.57795 0.95939,-2.85714 2.14286,-2.85714 1.18165,0 2.14029,1.27542 2.14285,2.85095 L 435,166.6479 z"
       sodipodi:start="0"
       sodipodi:end="6.2810189" />
    <path
       sodipodi:type="arc"
       style="fill:none;stroke:#000000;stroke-opacity:1"
       id="path3769"
       sodipodi:cx="357.14285"
       sodipodi:cy="433.07648"
       sodipodi:rx="7.1428571"
       sodipodi:ry="0.71428573"
       d="m 364.28571,433.07648 c 0,0.22284 -1.04003,0.43292 -2.81217,0.56802"
       sodipodi:start="0"
       sodipodi:end="0.91940125"
       sodipodi:open="true" />
    <path
       sodipodi:type="arc"
       style="fill:none;stroke:#000000;stroke-opacity:1;stroke-width:3;stroke-miterlimit:4;stroke-dasharray:none"
       id="path3771"
       sodipodi:cx="309.28571"
       sodipodi:cy="339.50504"
       sodipodi:rx="152.14285"
       sodipodi:ry="161.42857"
       d="m 461.40126,336.44744 c 1.59153,89.13854 -65.22273,162.76854 -149.23384,164.45721 -84.0111,1.68866 -153.40574,-69.20347 -154.99727,-158.34202 -1.59153,-89.13854 65.22273,-162.76854 149.23384,-164.45721 83.54939,-1.67938 152.73763,68.45375 154.97026,157.08666"
       sodipodi:start="6.2642433"
       sodipodi:end="12.53965"
       sodipodi:open="true" />
    <path
       sodipodi:type="arc"
       style="fill:none;stroke:#000000;stroke-opacity:1;stroke-width:3;stroke-miterlimit:4;stroke-dasharray:none"
       id="path3773"
       sodipodi:cx="241.42857"
       sodipodi:cy="288.07648"
       sodipodi:rx="20"
       sodipodi:ry="20"
       d="m 261.42499,287.69766 c 0.20921,11.04371 -8.57389,20.16601 -19.6176,20.37523 -11.04371,0.20921 -20.16601,-8.57388 -20.37523,-19.6176 -0.20921,-11.04371 8.57388,-20.16601 19.6176,-20.37523 10.98301,-0.20806 20.07818,8.481 20.37167,19.46207"
       sodipodi:start="6.2642433"
       sodipodi:end="12.53965"
       sodipodi:open="true" />
    <path
       transform="translate(122.85714,-1.4285813)"
       sodipodi:type="arc"
       style="fill:none;stroke:#000000;stroke-opacity:1;stroke-width:3;stroke-miterlimit:4;stroke-dasharray:none"
       id="path3773-1"
       sodipodi:cx="241.42857"
       sodipodi:cy="288.07648"
       sodipodi:rx="20"
       sodipodi:ry="20"
       d="m 261.42499,287.69766 c 0.20921,11.04371 -8.57389,20.16601 -19.6176,20.37523 -11.04371,0.20921 -20.16601,-8.57388 -20.37523,-19.6176 -0.20921,-11.04371 8.57388,-20.16601 19.6176,-20.37523 10.98301,-0.20806 20.07818,8.481 20.37167,19.46207"
       sodipodi:start="6.2642433"
       sodipodi:end="12.53965"
       sodipodi:open="true" />
    <path
       style="fill:none;stroke:#000000;stroke-width:3;stroke-linecap:butt;stroke-linejoin:miter;stroke-miterlimit:4;stroke-opacity:1;stroke-dasharray:none"
       d="m 226.64229,397.14848 158.21429,-0.71429"
       id="path3801"
       inkscape:connector-curvature="0"
       sodipodi:nodetypes="cc" />
  </g>
</svg>
